<svg preserveAspectRatio="xMidYMid meet" data-bbox="0 0 933.18 209.48" viewBox="0 0 933.18 209.48" xmlns="http://www.w3.org/2000/svg" data-type="color" role="img" aria-labelledby="comp-k33ausi8-svgtitle"><title id="comp-k33ausi8-svgtitle">Guidesly Logo</title>
    <g>
        <g>
            <path d="M190.13 94.33a86.08 86.08 0 00-69-74L127.75 35a73.49 73.49 0 0150.42 72.63 75.08 75.08 0 01-1.51 12.19l13.63-6.16 19.19-8.66z" fill="#213f42" data-color="1"></path>
            <path d="M94.33 19.35a86.08 86.08 0 00-74 69L35 81.73a73.41 73.41 0 0184.82-48.9l-6.2-13.63L105 0z" fill="#213f42" data-color="1"></path>
            <path d="M19.35 115.15a86.07 86.07 0 0069 74l-6.62-14.66a73.39 73.39 0 01-48.9-84.81L19.2 95.86 0 104.54z" fill="#213f42" data-color="1"></path>
            <path d="M115.15 190.13a86.07 86.07 0 0074-69l-14.66 6.62a73.49 73.49 0 01-72.63 50.42 75 75 0 01-12.18-1.51l6.15 13.63 8.67 19.19z" fill="#213f42" data-color="1"></path>
            <path d="M132.81 45.71c-32.1-15.46-71-1.79-86.73 30.48a65.53 65.53 0 0030 87.26 64.14 64.14 0 0028.5 6.74c22.8 0 43.55-12.32 54.25-29.12l1.39-2.72L104.58 74l-15.5 25.26-12.39-5.54-12.88 19.63-1.92 7.58 13.91-13.59L87.15 126l15.48-21.27 8.65 16 .87-12.08 21.79 32.27a45.93 45.93 0 01-58.29.18A46.54 46.54 0 01123 61.93a46.05 46.05 0 0123.76 22.93 41.67 41.67 0 014.2 15.41c-3.58-1.34-24.38-9.51-24.38-9.51S155.93 124 162.77 131l1.19 1.21.68-1.56a65.17 65.17 0 00-31.83-84.94z" fill="#406425" data-color="2"></path>
            <path d="M933.18 49.62c-.49.74-1.06 1.44-1.48 2.23q-17.55 33.51-35.1 67a9.76 9.76 0 00-1.15 4.73V160H870.2c-.05-.93-.14-1.9-.15-2.87v-34a11.86 11.86 0 00-1.4-5.79q-17.1-32.67-34.1-65.34c-.41-.79-.78-1.6-1.27-2.62h27.43c7.27 16 14.6 32.14 21.92 48.27l.64.1 22.09-48.49h25.08c.91 0 1.83-.09 2.74-.14z" fill="#406425" data-color="2"></path>
            <path d="M490.31 49.21h38.36a55.73 55.73 0 0115.56 2 43 43 0 0131.3 39.81c.33 9.21.31 18.45 0 27.65a42.78 42.78 0 01-32.93 39.86 58.67 58.67 0 01-12.3 1.55c-12.63.2-25.26.08-37.9.07-.62 0-1.25-.09-2.07-.16zm25.55 91.44c5.73-.2 11.35-.09 16.89-.68 6.42-.69 10.91-4.58 14-10.12a27.57 27.57 0 003.37-13.26c.09-7.93.19-15.86-.05-23.79a33.56 33.56 0 00-1.77-9.72c-2.34-6.85-6.9-11.77-14.16-13.48-6-1.4-12.07-.43-18.27-.68z" fill="#406425" data-color="2"></path>
            <path d="M319.8 103.48v42.08c-1 .86-2.44 2.15-3.92 3.37a52.73 52.73 0 01-27.19 11.95c-8.28 1.05-16.53 1.27-24.74-.58a42 42 0 01-32.69-36.68c-.52-5-.47-10.12-.54-15.18-.08-6-.25-12 .06-18 1-18.2 9.2-31.72 26.14-39.33a42.91 42.91 0 0117-3.38A64.58 64.58 0 01293.3 50c13.48 3.94 21.33 13.18 24.73 26.5.67 2.65.94 5.4 1.44 8.34h-24.13c-.31-1.29-.6-2.54-.92-3.77-2.64-10.38-9.53-15-21.34-13.4-8.27 1.08-12.8 6.85-15.24 14.29a34.71 34.71 0 00-1.64 9.75c-.22 8.67-.14 17.34-.05 26a30.9 30.9 0 002.85 13.1c3 6.25 7.76 10.3 14.77 11.08a34.72 34.72 0 0016.34-1.76 42.51 42.51 0 004.1-2.07v-17.94h-17.04v-16.64z" fill="#406425" data-color="2"></path>
            <path d="M401 49.35h25.4c.06.79.17 1.49.17 2.2 0 23.7.07 47.41 0 71.11 0 9.28-2.43 17.88-8.78 25A39.8 39.8 0 01396 160c-12.86 2.8-25.67 2.58-38-2.61-11.7-4.93-19.39-13.47-21.88-26.19a34.86 34.86 0 01-.77-6.58q-.11-36.79-.07-73.6c0-.46.06-.92.11-1.6h25.39v71.02a41 41 0 00.6 7.43c1.32 7 5.45 11.5 12.42 13.29a27.83 27.83 0 0015-.18c6.93-2 11.14-7.28 11.78-14.75.21-2.47.31-5 .31-7.46V53.19z" fill="#406425" data-color="2"></path>
            <path d="M617.76 92.89h42.86v19.71h-42.9v27.83h50.69v19.62H592V49.44h76.66V68.9h-50.9z" fill="#406425" data-color="2"></path>
            <path d="M677.51 124.65h24.68c.21 1.44.42 2.87.62 4.29.78 5.69 3.63 9.8 9.16 11.72a31.61 31.61 0 0018.49.91c4.91-1.25 8.16-4.31 8.74-9.5.55-4.86-1-9.12-5.45-11.5s-9.15-4.27-13.82-6.2c-6.54-2.69-13.22-5.08-19.7-7.89a53 53 0 01-8.83-5.12c-9.2-6.33-12-15.5-10.9-26.11.85-8.33 5.39-14.51 12.14-19.22a46 46 0 0121.58-7.83c8.66-1 17.3-.77 25.7 2 7.63 2.5 14.17 6.64 19 13.18a28.21 28.21 0 015.35 18.28h-24.61c-.18-.82-.39-1.6-.53-2.39-1.19-6.59-5.35-10.33-11.64-11.8a24.25 24.25 0 00-12.31.44 14.08 14.08 0 00-6.93 4.33c-4 4.66-3.3 11 1.81 14.41a35.33 35.33 0 006.59 3.45c5.9 2.31 11.89 4.43 17.84 6.62a73.92 73.92 0 0119 9.89c7.48 5.62 10.9 13.26 11.26 22.39.53 13.16-5.5 22.36-17.25 28-6.6 3.15-13.62 4.35-20.88 4.64a62.36 62.36 0 01-23.14-3c-7-2.4-13.35-5.81-18.4-11.32-5.75-6.32-7.82-13.97-7.57-22.67z" fill="#406425" data-color="2"></path>
            <path d="M804.42 140.49H852V160h-73V49.37h25.42z" fill="#406425" data-color="2"></path>
            <path d="M470.71 160.05h-25.1V49.44h25.1z" fill="#406425" data-color="2"></path>
        </g>
    </g>
</svg>